<svg xmlns="http://www.w3.org/2000/svg" viewBox="0 0 99.3 101.03"><defs><style>.cls-1{fill:#fff;}.cls-2{fill:none;stroke:#70b2e2;stroke-linecap:round;stroke-linejoin:round;stroke-width:4px;}</style></defs><title>logo</title><g id="Layer_2" data-name="Layer 2"><g id="Layer_1-2" data-name="Layer 1"><circle class="cls-1" cx="49.7" cy="49.84" r="27.78"/><path class="cls-1" d="M99.3,56.61c-1.37.51-2.7,1.14-4.11,1.52-3.33.91-4.92,2.83-6,6.34-4.84,15.41-15.54,24.71-31.33,28-1.39.29-3.81,1.77-4.37-1.35-.52-2.89,1.86-2.65,3.5-3C72.5,84.78,82.16,75.34,85.71,59.94c.82-3.56,2.23-4.74,5.68-4.4,2.61.26,5.27.05,7.9.05Z"/><path class="cls-1" d="M54.65,0c.52,1.37,1.15,2.7,1.53,4.11.91,3.33,2.83,4.92,6.34,6,15.42,4.82,24.73,15.52,28.07,31.3.29,1.39,1.77,3.81-1.34,4.37-2.9.53-2.66-1.85-3-3.49C82.86,26.78,73.4,17.12,58,13.59c-3.56-.82-4.74-2.23-4.4-5.68.25-2.61,0-5.26,0-7.9Z"/><path class="cls-1" d="M0,44.53C1.36,44,2.69,43.35,4.09,43,7.41,42,9,40.07,10,36.55,14.66,21.07,25.25,11.63,41,8.1c1.38-.3,3.79-1.81,4.39,1.29.56,2.89-1.83,2.68-3.47,3.06C26.44,16,16.89,25.58,13.54,41c-.77,3.58-2.16,4.77-5.62,4.48a77.16,77.16,0,0,0-7.9,0Z"/><path class="cls-1" d="M44.54,101c-.52-1.36-1.16-2.7-1.55-4.1-.92-3.33-2.85-4.9-6.36-6C21.18,86.19,11.82,75.54,8.42,59.77c-.3-1.38-1.79-3.8,1.32-4.38,2.89-.53,2.66,1.85,3,3.49,3.45,15.5,13,25.12,28.36,28.58,3.57.8,4.75,2.2,4.43,5.65-.24,2.62,0,5.27,0,7.91Z"/><path class="cls-2" d="M71.51,57c1.19-4-1-8.17-3.82-8.95a5.39,5.39,0,0,0-6.54,3.67c1.53-6.27.16-11.83-3.27-13.66-4-2.15-9.93-.05-11.31,7.49-.56-1.14-5.25-4.64-9-3.81-4.67,1-8.74,6.11-7.11,16.29,9.31.27,17.2.08,26.51.35"/></g></g></svg>